<svg width="24" height="24" viewBox="0 0 24 24" fill="none" xmlns="http://www.w3.org/2000/svg">
<path d="M13.5 16.125C13.5 16.332 13.3313 16.5 13.125 16.5C13.2345 16.5 11.3648 16.5 11.25 16.5V15.75C11.1728 15.75 12.9908 15.75 13.125 15.75C13.3313 15.75 13.5 15.918 13.5 16.125ZM12.375 14.25H11.25V13.5H12.375C12.5813 13.5 12.75 13.668 12.75 13.875C12.75 14.082 12.5813 14.25 12.375 14.25Z" fill="#7928CA"/>
<path d="M15.9233 7.125H8.03925C6.52275 9.1155 3 11.4255 3 15.231C3 18.4612 5.45475 22.5 12 22.5C18.5452 22.5 21 18.4612 21 15.231C21 11.3925 17.4173 9.15825 15.9233 7.125ZM13.0125 18H12.75V19.125H12V18H11.25V19.125H10.5V18H10.125C9.918 18 9.75 17.832 9.75 17.625C9.75 17.5095 9.75 12.1905 9.75 12.375C9.75 12.168 9.918 12 10.125 12H10.5V10.875H11.25V12H12V10.875H12.75V12.0382C13.8375 12.2602 14.5545 13.416 14.1217 14.5432C14.697 14.907 15.0653 15.5707 14.991 16.3162C14.8928 17.2935 13.995 18 13.0125 18ZM7.875 4.5H8.53875C8.2125 3.5865 7.54425 2.8605 7.22025 2.1375C7.128 1.93125 7.23225 1.686 7.4475 1.61625C9.198 1.05375 11.7203 3.24975 16.0695 1.81425C16.2847 1.743 16.455 1.986 16.3207 2.169C15.8295 2.838 15.5078 3.63 15.3638 4.5H16.125C16.5398 4.5 16.875 4.836 16.875 5.25C16.875 5.664 16.5398 6 16.125 6H7.875C7.46025 6 7.125 5.664 7.125 5.25C7.125 4.836 7.46025 4.5 7.875 4.5Z" fill="#7928CA"/>
</svg>
