<svg width="18" height="19" viewBox="0 0 18 19" fill="none" xmlns="http://www.w3.org/2000/svg">
<path d="M13.2 11.7077C11.6308 11.0615 11.4 10.5077 11.4 9.90769C11.4 9.30769 11.8616 8.70769 12.3692 8.24615C13.2923 7.46154 13.8 6.35384 13.8 5.06154C13.8 2.66154 12.2308 0.584614 9.36925 0.584614C6.55386 0.584614 4.93848 2.66154 4.93848 5.06154C4.93848 6.35384 5.44617 7.46154 6.36925 8.24615C6.87694 8.70769 7.33848 9.30769 7.33848 9.90769C7.33848 10.5077 7.10771 11.1077 5.49233 11.7077C3.18463 12.6308 0.923096 13.6923 0.923096 15.6308V15.7692V16.2308C0.923096 17.2462 1.75386 18.0769 2.8154 18.0769H15.6C16.6616 18.0769 17.5385 17.2462 17.5385 16.2308V15.7692V15.5846C17.5385 13.6923 15.5077 12.6308 13.2 11.7077Z" fill="#7928CA"/>
</svg>
