<svg width="24" height="24" viewBox="0 0 24 24" fill="none" xmlns="http://www.w3.org/2000/svg">
<path d="M17.25 11.25C16.0633 11.25 14.9033 11.6019 13.9166 12.2612C12.9299 12.9205 12.1608 13.8575 11.7067 14.9539C11.2526 16.0503 11.1338 17.2567 11.3653 18.4205C11.5968 19.5844 12.1682 20.6535 13.0074 21.4926C13.8465 22.3318 14.9156 22.9032 16.0795 23.1347C17.2433 23.3662 18.4497 23.2474 19.5461 22.7933C20.6425 22.3392 21.5795 21.5701 22.2388 20.5834C22.8981 19.5967 23.25 18.4367 23.25 17.25C23.2479 15.6593 22.6151 14.1344 21.4903 13.0097C20.3656 11.8849 18.8407 11.2521 17.25 11.25ZM18 19.875H17.625V20.25C17.625 20.3495 17.5855 20.4448 17.5152 20.5152C17.4448 20.5855 17.3495 20.625 17.25 20.625C17.1505 20.625 17.0552 20.5855 16.9848 20.5152C16.9145 20.4448 16.875 20.3495 16.875 20.25V19.875H15.375C15.2755 19.875 15.1802 19.8355 15.1098 19.7652C15.0395 19.6948 15 19.5995 15 19.5C15 19.4005 15.0395 19.3052 15.1098 19.2348C15.1802 19.1645 15.2755 19.125 15.375 19.125H18C18.1989 19.125 18.3897 19.046 18.5303 18.9053C18.671 18.7647 18.75 18.5739 18.75 18.375C18.75 18.1761 18.671 17.9853 18.5303 17.8447C18.3897 17.704 18.1989 17.625 18 17.625H16.5C16.1022 17.625 15.7206 17.467 15.4393 17.1857C15.158 16.9044 15 16.5228 15 16.125C15 15.7272 15.158 15.3456 15.4393 15.0643C15.7206 14.783 16.1022 14.625 16.5 14.625H16.875V14.25C16.875 14.1505 16.9145 14.0552 16.9848 13.9848C17.0552 13.9145 17.1505 13.875 17.25 13.875C17.3495 13.875 17.4448 13.9145 17.5152 13.9848C17.5855 14.0552 17.625 14.1505 17.625 14.25V14.625H18.75C18.8495 14.625 18.9448 14.6645 19.0152 14.7348C19.0855 14.8052 19.125 14.9005 19.125 15C19.125 15.0995 19.0855 15.1948 19.0152 15.2652C18.9448 15.3355 18.8495 15.375 18.75 15.375H16.5C16.3011 15.375 16.1103 15.454 15.9697 15.5947C15.829 15.7353 15.75 15.9261 15.75 16.125C15.75 16.3239 15.829 16.5147 15.9697 16.6553C16.1103 16.796 16.3011 16.875 16.5 16.875H18C18.3978 16.875 18.7794 17.033 19.0607 17.3143C19.342 17.5956 19.5 17.9772 19.5 18.375C19.5 18.7728 19.342 19.1544 19.0607 19.4357C18.7794 19.717 18.3978 19.875 18 19.875ZM6.75 12.75C7.93669 12.75 9.09673 12.3981 10.0834 11.7388C11.0701 11.0795 11.8392 10.1425 12.2933 9.0461C12.7474 7.94975 12.8662 6.74335 12.6347 5.57946C12.4032 4.41558 11.8318 3.34648 10.9926 2.50736C10.1535 1.66825 9.08443 1.0968 7.92054 0.865291C6.75666 0.63378 5.55026 0.7526 4.4539 1.20673C3.35754 1.66085 2.42047 2.42989 1.76118 3.41658C1.10189 4.40328 0.75 5.56331 0.75 6.75C0.752084 8.34066 1.38489 9.86557 2.50966 10.9903C3.63443 12.1151 5.15934 12.7479 6.75 12.75ZM4.5 4.875C4.40054 4.875 4.30516 4.83549 4.23484 4.76517C4.16451 4.69484 4.125 4.59946 4.125 4.5C4.125 4.40055 4.16451 4.30516 4.23484 4.23484C4.30516 4.16451 4.40054 4.125 4.5 4.125H5.625V3.75C5.625 3.65055 5.66451 3.55516 5.73484 3.48484C5.80516 3.41451 5.90054 3.375 6 3.375C6.09946 3.375 6.19484 3.41451 6.26517 3.48484C6.33549 3.55516 6.375 3.65055 6.375 3.75V4.125H7.125V3.75C7.125 3.65055 7.16451 3.55516 7.23483 3.48484C7.30516 3.41451 7.40054 3.375 7.5 3.375C7.59946 3.375 7.69484 3.41451 7.76517 3.48484C7.83549 3.55516 7.875 3.65055 7.875 3.75V4.125C8.18027 4.12391 8.47855 4.21634 8.72972 4.38985C8.98089 4.56336 9.1729 4.80963 9.27991 5.09553C9.38692 5.38144 9.4038 5.69326 9.32828 5.98904C9.25276 6.28483 9.08847 6.55039 8.8575 6.75C9.08847 6.94962 9.25276 7.21518 9.32828 7.51096C9.4038 7.80675 9.38692 8.11857 9.27991 8.40447C9.1729 8.69037 8.98089 8.93665 8.72972 9.11016C8.47855 9.28367 8.18027 9.3761 7.875 9.375V9.75C7.875 9.84946 7.83549 9.94484 7.76517 10.0152C7.69484 10.0855 7.59946 10.125 7.5 10.125C7.40054 10.125 7.30516 10.0855 7.23483 10.0152C7.16451 9.94484 7.125 9.84946 7.125 9.75V9.375H6.375V9.75C6.375 9.84946 6.33549 9.94484 6.26517 10.0152C6.19484 10.0855 6.09946 10.125 6 10.125C5.90054 10.125 5.80516 10.0855 5.73484 10.0152C5.66451 9.94484 5.625 9.84946 5.625 9.75V9.375H4.5C4.40054 9.375 4.30516 9.33549 4.23484 9.26517C4.16451 9.19484 4.125 9.09946 4.125 9C4.125 8.90055 4.16451 8.80516 4.23484 8.73484C4.30516 8.66451 4.40054 8.625 4.5 8.625H4.875V4.875H4.5Z" fill="#7928CA"/>
<path d="M8.625 7.875C8.62441 7.67627 8.5452 7.48585 8.40467 7.34533C8.26415 7.2048 8.07373 7.1256 7.875 7.125H5.625V8.625H7.875C8.07373 8.62441 8.26415 8.5452 8.40467 8.40468C8.5452 8.26415 8.62441 8.07373 8.625 7.875ZM8.625 5.625C8.62441 5.42627 8.5452 5.23585 8.40467 5.09533C8.26415 4.9548 8.07373 4.8756 7.875 4.875H5.625V6.375H7.875C8.07373 6.37441 8.26415 6.2952 8.40467 6.15468C8.5452 6.01415 8.62441 5.82373 8.625 5.625ZM17.5275 1.65375V1.3875C17.5273 1.24337 17.4856 1.10234 17.4074 0.981297C17.3291 0.860252 17.2177 0.764317 17.0863 0.704973C16.955 0.645629 16.8093 0.625389 16.6667 0.646676C16.5242 0.667963 16.3908 0.729875 16.2825 0.825002L14.2275 2.625C14.1477 2.69538 14.0838 2.78194 14.04 2.87892C13.9962 2.97591 13.9736 3.0811 13.9736 3.1875C13.9736 3.29391 13.9962 3.3991 14.04 3.49608C14.0838 3.59306 14.1477 3.67962 14.2275 3.75L16.2825 5.55C16.3898 5.64434 16.5219 5.70606 16.6631 5.72789C16.8043 5.74973 16.9488 5.73077 17.0796 5.67325C17.2104 5.61573 17.322 5.52204 17.4014 5.40321C17.4807 5.28438 17.5245 5.14536 17.5275 5.0025C18.8216 5.78596 19.8288 6.96547 20.4 8.36625C20.5043 8.62822 20.7035 8.84125 20.9579 8.96288C21.2122 9.08451 21.5031 9.1058 21.7725 9.0225L22.4888 8.7975C22.6363 8.75087 22.7728 8.67452 22.8898 8.57313C23.0067 8.47175 23.1017 8.34749 23.1688 8.20801C23.2359 8.06853 23.2737 7.91678 23.28 7.76213C23.2862 7.60747 23.2607 7.45317 23.205 7.30875C22.6886 6.0322 21.9194 4.87322 20.9438 3.90143C19.9681 2.92964 18.8061 2.1651 17.5275 1.65375ZM6.4725 22.3463V22.6125C6.47454 22.7558 6.51736 22.8956 6.59595 23.0155C6.67454 23.1353 6.78565 23.2303 6.91627 23.2893C7.04689 23.3484 7.19162 23.3689 7.33351 23.3487C7.47541 23.3284 7.6086 23.2682 7.7175 23.175L9.7725 21.375C9.8523 21.3046 9.91622 21.2181 9.96 21.1211C10.0038 21.0241 10.0264 20.9189 10.0264 20.8125C10.0264 20.7061 10.0038 20.6009 9.96 20.5039C9.91622 20.4069 9.8523 20.3204 9.7725 20.25L7.7175 18.45C7.61018 18.3557 7.47815 18.2939 7.33694 18.2721C7.19573 18.2503 7.05122 18.2692 6.92042 18.3268C6.78962 18.3843 6.67797 18.478 6.59862 18.5968C6.51927 18.7156 6.47551 18.8546 6.4725 18.9975C5.17843 18.214 4.17118 17.0345 3.6 15.6337C3.49635 15.3713 3.29725 15.1577 3.04266 15.036C2.78807 14.9143 2.49686 14.8934 2.2275 14.9775L1.51125 15.2025C1.36366 15.2491 1.22717 15.3255 1.11022 15.4269C0.993257 15.5283 0.898299 15.6525 0.831194 15.792C0.764089 15.9315 0.726258 16.0832 0.720033 16.2379C0.713808 16.3925 0.739321 16.5468 0.794999 16.6912C1.31142 17.9678 2.08057 19.1268 3.05622 20.0986C4.03188 21.0704 5.19391 21.8349 6.4725 22.3463Z" fill="#7928CA"/>
</svg>
