<svg width="26" height="24" viewBox="0 0 26 24" fill="none" xmlns="http://www.w3.org/2000/svg">
<g clip-path="url(#clip0_28_510)">
<path d="M25.0243 10.2586C24.9636 10.4331 24.7588 10.7291 24.1214 10.7291H22.619V22.4825C22.619 23.3247 21.9361 24.0076 21.1015 24.0076H16.435C15.5928 24.0076 14.8795 23.3095 14.8795 22.4825V17.6642C14.8795 17.2317 14.5533 16.8751 14.1587 16.8751H10.9718C10.5545 16.8751 10.1751 17.2469 10.1751 17.6642V22.4825C10.1751 23.3323 9.52259 24.0076 8.69552 24.0076H3.95319C3.11854 24.0076 2.43564 23.3247 2.43564 22.4825V10.7215H0.933269C0.295899 10.7215 0.09103 10.4255 0.0303281 10.251C-0.0303738 10.0765 -0.0607248 9.71989 0.432478 9.31774L11.4043 0.379387C11.7079 0.136579 12.1024 0 12.5273 0C12.9522 0 13.3468 0.136579 13.6503 0.379387L17.5125 3.5283L17.8387 3.79387L21.4809 6.76067L22.1258 7.28422L24.6146 9.31774C25.1154 9.72747 25.085 10.0841 25.0243 10.2586Z" fill="#7928CA"/>
<path d="M21.4809 2.67848V6.76827L17.8387 3.80146V2.67848C17.8387 2.21563 18.2105 1.84383 18.6734 1.84383H20.6462C21.1091 1.84383 21.4809 2.21563 21.4809 2.67848Z" fill="#FF0080"/>
</g>
<defs>
<clipPath id="clip0_28_510">
<rect width="25.0547" height="24" fill="white"/>
</clipPath>
</defs>
</svg>
