<svg width="69" height="78" viewBox="0 0 69 78" fill="none" xmlns="http://www.w3.org/2000/svg">
<g clip-path="url(#clip0_9_58)">
<g opacity="0.15">
<g opacity="0.15">
<path opacity="0.15" d="M55.3837 51.0517C53.6717 51.0517 52.2885 49.652 52.2885 47.9197V34.8184C52.2885 33.0861 53.6717 31.6865 55.3837 31.6865C57.0956 31.6865 58.4788 33.0861 58.4788 34.8184V47.9083C58.4788 49.6406 57.0956 51.0517 55.3837 51.0517Z" fill="#E5E8ED"/>
<path opacity="0.15" d="M19.1604 56.6731C20.8723 56.6731 22.2555 55.2734 22.2555 53.5411V29.197C22.2555 27.4647 20.8723 26.065 19.1604 26.065C17.4484 26.065 16.0652 27.4647 16.0652 29.197V53.5297C16.0652 55.262 17.4598 56.6731 19.1604 56.6731Z" fill="#E5E8ED"/>
<path opacity="0.15" d="M6.16758 47.8738C7.87954 47.8738 9.26272 46.4742 9.26272 44.7419V37.9847C9.26272 36.2524 7.87954 34.8528 6.16758 34.8528C4.45562 34.8528 3.07245 36.2524 3.07245 37.9847V44.7419C3.07245 46.4742 4.45562 47.8738 6.16758 47.8738Z" fill="#E5E8ED"/>
<g opacity="0.15">
<path opacity="0.15" d="M39.7946 49.652C39.7946 50.8566 38.8309 51.8203 37.6518 51.8203C36.4614 51.8203 35.509 50.8451 35.509 49.652V32.3174C35.509 31.1128 36.4727 30.1492 37.6518 30.1492C38.8423 30.1492 39.7946 31.1243 39.7946 32.3174V49.652ZM43.0031 15.3499H42.0394C40.5996 15.3499 39.4205 16.5316 39.4205 18V23.0708C39.4205 24.4245 38.3321 25.5258 36.9942 25.5258C35.6564 25.5258 34.568 24.4245 34.568 23.0708V7.93884C34.568 6.22947 33.2415 4.78397 31.5522 4.73808C29.8063 4.69219 28.3777 6.11475 28.3777 7.87001V74.7878C28.3777 76.4972 29.7042 77.9427 31.3935 77.9885C33.1395 78.0344 34.568 76.6119 34.568 74.8566V59.6559C34.568 58.3021 35.6564 57.2008 36.9942 57.2008C38.3321 57.2008 39.4205 58.3021 39.4205 59.6559V64.7266C39.4205 66.1836 40.5882 67.3767 42.0394 67.3767H43.0031C44.443 67.3767 45.6221 66.195 45.6221 64.7266V18C45.6221 16.5316 44.443 15.3499 43.0031 15.3499Z" fill="#E5E8ED"/>
</g>
<path opacity="0.15" d="M66.0976 44.306C67.7006 44.306 69 42.9911 69 41.369C69 39.747 67.7006 38.4321 66.0976 38.4321C64.4946 38.4321 63.1952 39.747 63.1952 41.369C63.1952 42.9911 64.4946 44.306 66.0976 44.306Z" fill="#E5E8ED"/>
</g>
<g opacity="0.15">
<path opacity="0.15" d="M55.259 50.8451C53.547 50.8451 52.1638 49.4455 52.1638 47.7132V34.6234C52.1638 32.891 53.547 31.4914 55.259 31.4914C56.9709 31.4914 58.3541 32.891 58.3541 34.6234V47.7132C58.3541 49.4455 56.9709 50.8451 55.259 50.8451Z" fill="#F3F3F3"/>
<path opacity="0.15" d="M19.0357 56.4666C20.7477 56.4666 22.1308 55.0669 22.1308 53.3346V29.0019C22.1308 27.2696 20.7477 25.87 19.0357 25.87C17.3237 25.87 15.9406 27.2696 15.9406 29.0019V53.3346C15.9406 55.0669 17.3237 56.4666 19.0357 56.4666Z" fill="#F3F3F3"/>
<path opacity="0.15" d="M6.04289 47.6788C7.75485 47.6788 9.13803 46.2792 9.13803 44.5469V37.7897C9.13803 36.0574 7.75485 34.6578 6.04289 34.6578C4.33093 34.6578 2.94775 36.0574 2.94775 37.7897V44.5469C2.94775 46.2677 4.33093 47.6788 6.04289 47.6788Z" fill="#F3F3F3"/>
<g opacity="0.15">
<path opacity="0.15" d="M39.6586 49.457C39.6586 50.6616 38.6949 51.6253 37.5158 51.6253C36.3253 51.6253 35.373 50.6501 35.373 49.457V32.1109C35.373 30.9063 36.3367 29.9427 37.5158 29.9427C38.7062 29.9427 39.6586 30.9178 39.6586 32.1109V49.457ZM42.8784 15.1434H41.9147C40.4749 15.1434 39.2958 16.3251 39.2958 17.7935V22.8643C39.2958 24.218 38.2074 25.3193 36.8695 25.3193C35.5317 25.3193 34.4433 24.218 34.4433 22.8643V7.74381C34.4433 6.03444 33.1168 4.58893 31.4276 4.54304C29.6816 4.49715 28.2531 5.91971 28.2531 7.67497V74.5928C28.2531 76.3021 29.5795 77.7476 31.2688 77.7935C33.0148 77.8394 34.4433 76.4168 34.4433 74.6616V59.4608C34.4433 58.1071 35.5317 57.0058 36.8695 57.0058C38.2074 57.0058 39.2958 58.1071 39.2958 59.4608V64.5316C39.2958 65.9885 40.4635 67.1817 41.9147 67.1817H42.8784C44.3183 67.1817 45.4974 66 45.4974 64.5316V17.7935C45.486 16.3365 44.3183 15.1434 42.8784 15.1434Z" fill="#F3F3F3"/>
</g>
<path opacity="0.15" d="M65.9729 44.0994C67.5759 44.0994 68.8753 42.7846 68.8753 41.1625C68.8753 39.5405 67.5759 38.2256 65.9729 38.2256C64.3699 38.2256 63.0705 39.5405 63.0705 41.1625C63.0705 42.7846 64.3699 44.0994 65.9729 44.0994Z" fill="#F3F3F3"/>
</g>
<g opacity="0.15">
<path opacity="0.15" d="M55.1342 50.6386C53.4222 50.6386 52.0391 49.239 52.0391 47.5067V34.4168C52.0391 32.6845 53.4222 31.2849 55.1342 31.2849C56.8462 31.2849 58.2293 32.6845 58.2293 34.4168V47.5067C58.2293 49.239 56.8462 50.6386 55.1342 50.6386Z" fill="#E7E7E7"/>
<path opacity="0.15" d="M18.9109 56.26C20.6229 56.26 22.0061 54.8604 22.0061 53.1281V28.7954C22.0061 27.0631 20.6229 25.6635 18.9109 25.6635C17.199 25.6635 15.8158 27.0631 15.8158 28.7954V53.1281C15.8158 54.8604 17.199 56.26 18.9109 56.26Z" fill="#E7E7E7"/>
<path opacity="0.15" d="M5.91813 47.4723C7.6301 47.4723 9.01327 46.0727 9.01327 44.3403V37.5832C9.01327 35.8509 7.6301 34.4512 5.91813 34.4512C4.20617 34.4512 2.823 35.8509 2.823 37.5832V44.3403C2.823 46.0727 4.20617 47.4723 5.91813 47.4723Z" fill="#E7E7E7"/>
<g opacity="0.15">
<path opacity="0.15" d="M39.5338 49.2505C39.5338 50.4551 38.5701 51.4187 37.391 51.4187C36.2006 51.4187 35.2482 50.4436 35.2482 49.2505V31.9044C35.2482 30.6998 36.2119 29.7361 37.391 29.7361C38.5815 29.7361 39.5338 30.7113 39.5338 31.9044V49.2505ZM42.7537 14.9484H41.79C40.3501 14.9484 39.171 16.13 39.171 17.5985V22.6692C39.171 24.023 38.0826 25.1243 36.7448 25.1243C35.407 25.1243 34.3186 24.023 34.3186 22.6692V7.53729C34.3186 5.82792 32.9921 4.38242 31.3028 4.33653C29.5568 4.29064 28.1283 5.7132 28.1283 7.46846V74.3862C28.1283 76.0956 29.4548 77.5411 31.1441 77.587C32.89 77.6329 34.3186 76.2103 34.3186 74.4551V59.2543C34.3186 57.9006 35.407 56.7992 36.7448 56.7992C38.0826 56.7992 39.171 57.9006 39.171 59.2543V64.3251C39.171 65.782 40.3388 66.9751 41.79 66.9751H42.7537C44.1935 66.9751 45.3726 65.7935 45.3726 64.3251V17.5985C45.3613 16.13 44.1935 14.9484 42.7537 14.9484Z" fill="#E7E7E7"/>
</g>
<path opacity="0.15" d="M65.8482 43.9044C67.4511 43.9044 68.7506 42.5895 68.7506 40.9675C68.7506 39.3455 67.4511 38.0306 65.8482 38.0306C64.2452 38.0306 62.9457 39.3455 62.9457 40.9675C62.9457 42.5895 64.2452 43.9044 65.8482 43.9044Z" fill="#E7E7E7"/>
</g>
<g opacity="0.15">
<path opacity="0.15" d="M55.0095 50.4436C53.2975 50.4436 51.9144 49.044 51.9144 47.3117V34.2104C51.9144 32.4781 53.2975 31.0784 55.0095 31.0784C56.7215 31.0784 58.1046 32.4781 58.1046 34.2104V47.3002C58.1046 49.0326 56.7215 50.4436 55.0095 50.4436Z" fill="#DBDBDB"/>
<path opacity="0.15" d="M18.7862 56.065C20.4981 56.065 21.8813 54.6654 21.8813 52.9331V28.5889C21.8813 26.8566 20.4981 25.457 18.7862 25.457C17.0742 25.457 15.691 26.8566 15.691 28.5889V52.9216C15.691 54.6539 17.0742 56.065 18.7862 56.065Z" fill="#DBDBDB"/>
<path opacity="0.15" d="M5.79344 47.2658C7.5054 47.2658 8.88858 45.8662 8.88858 44.1339V37.3767C8.88858 35.6444 7.5054 34.2448 5.79344 34.2448C4.08148 34.2448 2.6983 35.6444 2.6983 37.3767V44.1339C2.6983 45.8662 4.08148 47.2658 5.79344 47.2658Z" fill="#DBDBDB"/>
<g opacity="0.15">
<path opacity="0.15" d="M39.4091 49.044C39.4091 50.2486 38.4454 51.2123 37.2663 51.2123C36.0759 51.2123 35.1235 50.2371 35.1235 49.044V31.7094C35.1235 30.5048 36.0872 29.5411 37.2663 29.5411C38.4568 29.5411 39.4091 30.5163 39.4091 31.7094V49.044ZM42.629 14.7419H41.6653C40.2254 14.7419 39.0463 15.9235 39.0463 17.392V22.4627C39.0463 23.8165 37.9579 24.9178 36.6201 24.9178C35.2823 24.9178 34.1939 23.8165 34.1939 22.4627V7.33081C34.1939 5.62144 32.8674 4.17594 31.1781 4.13005C29.4321 4.08416 28.0036 5.50672 28.0036 7.26198V74.1798C28.0036 75.8891 29.3301 77.3346 31.0194 77.3805C32.7653 77.4264 34.1939 76.0039 34.1939 74.2486V59.0478C34.1939 57.6941 35.2823 56.5928 36.6201 56.5928C37.9579 56.5928 39.0463 57.6941 39.0463 59.0478V64.13C39.0463 65.587 40.2141 66.7801 41.6653 66.7801H42.629C44.0688 66.7801 45.2479 65.5985 45.2479 64.13V17.392C45.2366 15.9235 44.0688 14.7419 42.629 14.7419Z" fill="#DBDBDB"/>
</g>
<path opacity="0.15" d="M65.7234 43.6979C67.3264 43.6979 68.6258 42.383 68.6258 40.761C68.6258 39.139 67.3264 37.8241 65.7234 37.8241C64.1205 37.8241 62.821 39.139 62.821 40.761C62.821 42.383 64.1205 43.6979 65.7234 43.6979Z" fill="#DBDBDB"/>
</g>
<g opacity="0.15">
<path opacity="0.15" d="M54.8848 50.2371C53.1729 50.2371 51.7897 48.8375 51.7897 47.1052V34.0153C51.7897 32.283 53.1729 30.8834 54.8848 30.8834C56.5968 30.8834 57.9799 32.283 57.9799 34.0153V47.1052C57.9799 48.8375 56.5968 50.2371 54.8848 50.2371Z" fill="#CECECE"/>
<path opacity="0.15" d="M18.6615 55.8585C20.3735 55.8585 21.7567 54.4589 21.7567 52.7266V28.3939C21.7567 26.6616 20.3735 25.262 18.6615 25.262C16.9496 25.262 15.5664 26.6616 15.5664 28.3939V52.7266C15.5664 54.4589 16.9496 55.8585 18.6615 55.8585Z" fill="#CECECE"/>
<path opacity="0.15" d="M5.66875 47.0708C7.38071 47.0708 8.76389 45.6712 8.76389 43.9388V37.1817C8.76389 35.4494 7.38071 34.0497 5.66875 34.0497C3.95678 34.0497 2.57361 35.4494 2.57361 37.1817V43.9388C2.57361 45.6597 3.95678 47.0708 5.66875 47.0708Z" fill="#CECECE"/>
<g opacity="0.15">
<path opacity="0.15" d="M39.2844 48.849C39.2844 50.0536 38.3207 51.0172 37.1416 51.0172C35.9512 51.0172 34.9989 50.0421 34.9989 48.849V31.5029C34.9989 30.2983 35.9625 29.3346 37.1416 29.3346C38.3321 29.3346 39.2844 30.3098 39.2844 31.5029V48.849ZM42.5043 14.5469H41.5406C40.1007 14.5469 38.9216 15.7285 38.9216 17.197V22.2677C38.9216 23.6214 37.8332 24.7228 36.4954 24.7228C35.1576 24.7228 34.0692 23.6214 34.0692 22.2677V7.13577C34.0692 5.42641 32.7427 3.9809 31.0534 3.93501C29.3074 3.88912 27.8789 5.31168 27.8789 7.06694V73.9847C27.8789 75.6941 29.2054 77.1396 30.8947 77.1855C32.6407 77.2314 34.0692 75.8088 34.0692 74.0536V58.8528C34.0692 57.4991 35.1576 56.3977 36.4954 56.3977C37.8332 56.3977 38.9216 57.4991 38.9216 58.8528V63.9235C38.9216 65.3805 40.0894 66.5736 41.5406 66.5736H42.5043C43.9441 66.5736 45.1232 65.392 45.1232 63.9235V17.1855C45.1119 15.7285 43.9441 14.5469 42.5043 14.5469Z" fill="#CECECE"/>
</g>
<path opacity="0.15" d="M65.5987 43.4914C67.2017 43.4914 68.5011 42.1765 68.5011 40.5545C68.5011 38.9325 67.2017 37.6176 65.5987 37.6176C63.9958 37.6176 62.6964 38.9325 62.6964 40.5545C62.6964 42.1765 63.9958 43.4914 65.5987 43.4914Z" fill="#CECECE"/>
</g>
<g opacity="0.15">
<path opacity="0.15" d="M54.7601 50.0306C53.0481 50.0306 51.665 48.631 51.665 46.8987V33.8088C51.665 32.0765 53.0481 30.6769 54.7601 30.6769C56.4721 30.6769 57.8552 32.0765 57.8552 33.8088V46.8987C57.8552 48.631 56.4721 50.0306 54.7601 50.0306Z" fill="#C2C2C2"/>
<path opacity="0.15" d="M18.5368 55.6635C20.2488 55.6635 21.632 54.2639 21.632 52.5315V28.1874C21.632 26.4551 20.2488 25.0555 18.5368 25.0555C16.8249 25.0555 15.4417 26.4551 15.4417 28.1874V52.5201C15.4417 54.2524 16.8249 55.6635 18.5368 55.6635Z" fill="#C2C2C2"/>
<path opacity="0.15" d="M5.54405 46.8642C7.25601 46.8642 8.63918 45.4646 8.63918 43.7323V36.9751C8.63918 35.2428 7.25601 33.8432 5.54405 33.8432C3.83209 33.8432 2.44891 35.2428 2.44891 36.9751V43.7323C2.44891 45.4646 3.83209 46.8642 5.54405 46.8642Z" fill="#C2C2C2"/>
<g opacity="0.15">
<path opacity="0.15" d="M39.1597 48.6425C39.1597 49.847 38.196 50.8107 37.0169 50.8107C35.8265 50.8107 34.8742 49.8356 34.8742 48.6425V31.3078C34.8742 30.1033 35.8378 29.1396 37.0169 29.1396C38.2074 29.1396 39.1597 30.1147 39.1597 31.3078V48.6425ZM42.3796 14.3404H41.4159C39.976 14.3404 38.7969 15.522 38.7969 16.9904V22.0612C38.7969 23.4149 37.7085 24.5163 36.3707 24.5163C35.0329 24.5163 33.9445 23.4149 33.9445 22.0612V6.92926C33.9445 5.21989 32.618 3.77439 30.9287 3.7285C29.1827 3.68261 27.7542 5.10517 27.7542 6.86043V73.7782C27.7542 75.4876 29.0807 76.9331 30.77 76.979C32.516 77.0249 33.9445 75.6023 33.9445 73.847V58.6463C33.9445 57.2925 35.0329 56.1912 36.3707 56.1912C37.7085 56.1912 38.7969 57.2925 38.7969 58.6463V63.717C38.7969 65.174 39.9647 66.3671 41.4159 66.3671H42.3796C43.8194 66.3671 44.9985 65.1855 44.9985 63.717V16.9904C44.9872 15.522 43.8194 14.3404 42.3796 14.3404Z" fill="#C2C2C2"/>
</g>
<path opacity="0.15" d="M65.4741 43.2964C67.077 43.2964 68.3764 41.9815 68.3764 40.3595C68.3764 38.7375 67.077 37.4226 65.4741 37.4226C63.8711 37.4226 62.5717 38.7375 62.5717 40.3595C62.5717 41.9815 63.8711 43.2964 65.4741 43.2964Z" fill="#C2C2C2"/>
</g>
<g opacity="0.15">
<path opacity="0.15" d="M54.6354 49.8356C52.9234 49.8356 51.5402 48.436 51.5402 46.7037V33.6138C51.5402 31.8815 52.9234 30.4819 54.6354 30.4819C56.3473 30.4819 57.7305 31.8815 57.7305 33.6138V46.7037C57.7305 48.436 56.3473 49.8356 54.6354 49.8356Z" fill="#B6B6B6"/>
<path opacity="0.15" d="M18.4121 55.457C20.124 55.457 21.5072 54.0574 21.5072 52.3251V27.9809C21.5072 26.2486 20.124 24.849 18.4121 24.849C16.7001 24.849 15.317 26.2486 15.317 27.9809V52.3136C15.317 54.0574 16.7001 55.457 18.4121 55.457Z" fill="#B6B6B6"/>
<path opacity="0.15" d="M5.41929 46.6692C7.13126 46.6692 8.51443 45.2696 8.51443 43.5373V36.7801C8.51443 35.0478 7.13126 33.6482 5.41929 33.6482C3.70733 33.6482 2.32416 35.0478 2.32416 36.7801V43.5373C2.32416 45.2581 3.70733 46.6692 5.41929 46.6692Z" fill="#B6B6B6"/>
<g opacity="0.15">
<path opacity="0.15" d="M39.035 48.436C39.035 49.6406 38.0713 50.6042 36.8922 50.6042C35.7017 50.6042 34.7494 49.6291 34.7494 48.436V31.1014C34.7494 29.8968 35.7131 28.9331 36.8922 28.9331C38.0826 28.9331 39.035 29.9083 39.035 31.1014V48.436ZM42.2548 14.1339H41.2911C39.8513 14.1339 38.6722 15.3155 38.6722 16.784V21.8547C38.6722 23.2084 37.5838 24.3098 36.2459 24.3098C34.9081 24.3098 33.8197 23.2084 33.8197 21.8547V6.73425C33.8197 5.02489 32.4932 3.57938 30.804 3.53349C29.058 3.4876 27.6295 4.91016 27.6295 6.66542V73.5832C27.6295 75.2926 28.9559 76.7381 30.6452 76.784C32.3912 76.8299 33.8197 75.4073 33.8197 73.652V58.4513C33.8197 57.0975 34.9081 55.9962 36.2459 55.9962C37.5838 55.9962 38.6722 57.0975 38.6722 58.4513V63.522C38.6722 64.979 39.8399 66.1721 41.2911 66.1721H42.2548C43.6947 66.1721 44.8738 64.9905 44.8738 63.522V16.784C44.8624 15.327 43.6947 14.1339 42.2548 14.1339Z" fill="#B6B6B6"/>
</g>
<path opacity="0.15" d="M65.3493 43.0899C66.9522 43.0899 68.2517 41.775 68.2517 40.153C68.2517 38.531 66.9522 37.2161 65.3493 37.2161C63.7463 37.2161 62.4469 38.531 62.4469 40.153C62.4469 41.775 63.7463 43.0899 65.3493 43.0899Z" fill="#B6B6B6"/>
</g>
<g opacity="0.15">
<path opacity="0.15" d="M54.5107 49.6291C52.7987 49.6291 51.4155 48.2295 51.4155 46.4972V33.4073C51.4155 31.675 52.7987 30.2754 54.5107 30.2754C56.2226 30.2754 57.6058 31.675 57.6058 33.4073V46.4972C57.6058 48.2295 56.2226 49.6291 54.5107 49.6291Z" fill="#AAAAAA"/>
<path opacity="0.15" d="M18.2874 55.2505C19.9994 55.2505 21.3825 53.8509 21.3825 52.1186V27.7859C21.3825 26.0535 19.9994 24.6539 18.2874 24.6539C16.5754 24.6539 15.1923 26.0535 15.1923 27.7859V52.1186C15.1923 53.8509 16.5754 55.2505 18.2874 55.2505Z" fill="#AAAAAA"/>
<path opacity="0.15" d="M5.2946 46.4627C7.00656 46.4627 8.38974 45.0631 8.38974 43.3308V36.5736C8.38974 34.8413 7.00656 33.4417 5.2946 33.4417C3.58264 33.4417 2.19946 34.8413 2.19946 36.5736V43.3308C2.19946 45.0631 3.58264 46.4627 5.2946 46.4627Z" fill="#AAAAAA"/>
<g opacity="0.15">
<path opacity="0.15" d="M38.9103 48.2409C38.9103 49.4455 37.9466 50.4092 36.7675 50.4092C35.5771 50.4092 34.6247 49.434 34.6247 48.2409V30.8948C34.6247 29.6903 35.5884 28.7266 36.7675 28.7266C37.9579 28.7266 38.9103 29.7017 38.9103 30.8948V48.2409ZM42.1301 13.9388H41.1665C39.7266 13.9388 38.5475 15.1205 38.5475 16.5889V21.6597C38.5475 23.0134 37.4591 24.1147 36.1213 24.1147C34.7834 24.1147 33.695 23.0134 33.695 21.6597V6.52774C33.695 4.81837 32.3685 3.37287 30.6793 3.32698C28.9333 3.28109 27.5048 4.70365 27.5048 6.45891V73.3767C27.5048 75.086 28.8312 76.5315 30.5205 76.5774C32.2665 76.6233 33.695 75.2008 33.695 73.4455V58.2447C33.695 56.891 34.7834 55.7897 36.1213 55.7897C37.4591 55.7897 38.5475 56.891 38.5475 58.2447V63.327C38.5475 64.7839 39.7153 65.9771 41.1665 65.9771H42.1301C43.57 65.9771 44.7491 64.7954 44.7491 63.327V16.5775C44.7378 15.1205 43.57 13.9388 42.1301 13.9388Z" fill="#AAAAAA"/>
</g>
<path opacity="0.15" d="M68.0443 40.6298C68.4127 39.0512 67.4466 37.4694 65.8867 37.0967C64.3267 36.7239 62.7634 37.7014 62.3951 39.28C62.0267 40.8585 62.9927 42.4403 64.5527 42.8131C66.1127 43.1858 67.6759 42.2083 68.0443 40.6298Z" fill="#AAAAAA"/>
</g>
<g opacity="0.15">
<path opacity="0.15" d="M54.386 49.434C52.674 49.434 51.2908 48.0344 51.2908 46.3021V33.2008C51.2908 31.4685 52.674 30.0688 54.386 30.0688C56.0979 30.0688 57.4811 31.4685 57.4811 33.2008V46.2906C57.4811 48.023 56.0979 49.434 54.386 49.434Z" fill="#9E9E9E"/>
<path opacity="0.15" d="M18.1627 55.0554C19.8747 55.0554 21.2578 53.6558 21.2578 51.9235V27.5793C21.2578 25.847 19.8747 24.4474 18.1627 24.4474C16.4507 24.4474 15.0676 25.847 15.0676 27.5793V51.912C15.0676 53.6443 16.4507 55.0554 18.1627 55.0554Z" fill="#9E9E9E"/>
<path opacity="0.15" d="M5.1699 46.2562C6.88187 46.2562 8.26504 44.8566 8.26504 43.1243V36.3671C8.26504 34.6348 6.88187 33.2352 5.1699 33.2352C3.45794 33.2352 2.07477 34.6348 2.07477 36.3671V43.1243C2.07477 44.8566 3.45794 46.2562 5.1699 46.2562Z" fill="#9E9E9E"/>
<g opacity="0.15">
<path opacity="0.15" d="M38.7856 48.0344C38.7856 49.239 37.8219 50.2027 36.6428 50.2027C35.4524 50.2027 34.5 49.2275 34.5 48.0344V30.6998C34.5 29.4952 35.4637 28.5316 36.6428 28.5316C37.8332 28.5316 38.7856 29.5067 38.7856 30.6998V48.0344ZM42.0054 13.7323H41.0417C39.6019 13.7323 38.4228 14.914 38.4228 16.3824V21.4532C38.4228 22.8069 37.3344 23.9082 35.9966 23.9082C34.6587 23.9082 33.5703 22.8069 33.5703 21.4532V6.32123C33.5703 4.61186 32.2439 3.16635 30.5546 3.12046C28.8086 3.07458 27.3801 4.49714 27.3801 6.2524V73.1702C27.3801 74.8795 28.7066 76.3251 30.3958 76.3709C32.1418 76.4168 33.5703 74.9943 33.5703 73.239V58.0383C33.5703 56.6845 34.6587 55.5832 35.9966 55.5832C37.3344 55.5832 38.4228 56.6845 38.4228 58.0383V63.109C38.4228 64.566 39.5906 65.7591 41.0417 65.7591H42.0054C43.4453 65.7591 44.6244 64.5774 44.6244 63.109V16.3824C44.6131 14.914 43.4453 13.7323 42.0054 13.7323Z" fill="#9E9E9E"/>
</g>
<path opacity="0.15" d="M65.0999 42.6883C66.7029 42.6883 68.0023 41.3734 68.0023 39.7514C68.0023 38.1294 66.7029 36.8145 65.0999 36.8145C63.497 36.8145 62.1975 38.1294 62.1975 39.7514C62.1975 41.3734 63.497 42.6883 65.0999 42.6883Z" fill="#9E9E9E"/>
</g>
<g opacity="0.15">
<path opacity="0.15" d="M54.2612 49.2276C52.5493 49.2276 51.1661 47.8279 51.1661 46.0956V33.0058C51.1661 31.2735 52.5493 29.8738 54.2612 29.8738C55.9732 29.8738 57.3563 31.2735 57.3563 33.0058V46.0956C57.3563 47.8279 55.9732 49.2276 54.2612 49.2276Z" fill="#929292"/>
<path opacity="0.15" d="M18.0379 54.849C19.7499 54.849 21.1331 53.4494 21.1331 51.717V27.3843C21.1331 25.652 19.7499 24.2524 18.0379 24.2524C16.326 24.2524 14.9428 25.652 14.9428 27.3843V51.717C14.9428 53.4494 16.326 54.849 18.0379 54.849Z" fill="#929292"/>
<path opacity="0.15" d="M5.04515 46.0612C6.75711 46.0612 8.14028 44.6616 8.14028 42.9293V36.1721C8.14028 34.4398 6.75711 33.0402 5.04515 33.0402C3.33319 33.0402 1.95001 34.4398 1.95001 36.1721V42.9293C1.95001 44.6501 3.33319 46.0612 5.04515 46.0612Z" fill="#929292"/>
<g opacity="0.15">
<path opacity="0.15" d="M38.6608 47.8394C38.6608 49.044 37.6971 50.0077 36.518 50.0077C35.3276 50.0077 34.3753 49.0325 34.3753 47.8394V30.4933C34.3753 29.2887 35.3389 28.3251 36.518 28.3251C37.7085 28.3251 38.6608 29.3002 38.6608 30.4933V47.8394ZM41.8807 13.5258H40.917C39.4771 13.5258 38.298 14.7075 38.298 16.1759V21.2467C38.298 22.6004 37.2096 23.7017 35.8718 23.7017C34.534 23.7017 33.4456 22.6004 33.4456 21.2467V6.12622C33.4456 4.41685 32.1191 2.97135 30.4298 2.92546C28.6838 2.87957 27.2553 4.30213 27.2553 6.05739V72.9752C27.2553 74.6845 28.5818 76.13 30.2711 76.1759C32.0171 76.2218 33.4456 74.7992 33.4456 73.044V57.8432C33.4456 56.4895 34.534 55.3882 35.8718 55.3882C37.2096 55.3882 38.298 56.4895 38.298 57.8432V62.914C38.298 64.371 39.4658 65.5641 40.917 65.5641H41.8807C43.3205 65.5641 44.4996 64.3824 44.4996 62.914V16.1759C44.4883 14.719 43.3205 13.5258 41.8807 13.5258Z" fill="#929292"/>
</g>
<path opacity="0.15" d="M64.9751 42.4818C66.5781 42.4818 67.8775 41.1669 67.8775 39.5449C67.8775 37.9229 66.5781 36.608 64.9751 36.608C63.3722 36.608 62.0728 37.9229 62.0728 39.5449C62.0728 41.1669 63.3722 42.4818 64.9751 42.4818Z" fill="#929292"/>
</g>
<g opacity="0.15">
<path opacity="0.15" d="M54.1365 49.021C52.4246 49.021 51.0414 47.6214 51.0414 45.8891V32.7993C51.0414 31.0669 52.4246 29.6673 54.1365 29.6673C55.8485 29.6673 57.2317 31.0669 57.2317 32.7993V45.8891C57.2317 47.6214 55.8485 49.021 54.1365 49.021Z" fill="#868686"/>
<path opacity="0.15" d="M17.9133 54.6424C19.6252 54.6424 21.0084 53.2428 21.0084 51.5105V27.1778C21.0084 25.4455 19.6252 24.0459 17.9133 24.0459C16.2013 24.0459 14.8181 25.4455 14.8181 27.1778V51.5105C14.8181 53.2428 16.2013 54.6424 17.9133 54.6424Z" fill="#868686"/>
<path opacity="0.15" d="M4.92045 45.8547C6.63242 45.8547 8.01559 44.4551 8.01559 42.7228V35.9656C8.01559 34.2333 6.63242 32.8337 4.92045 32.8337C3.20849 32.8337 1.82532 34.2333 1.82532 35.9656V42.7228C1.82532 44.4551 3.20849 45.8547 4.92045 45.8547Z" fill="#868686"/>
<g opacity="0.15">
<path opacity="0.15" d="M38.5361 47.6329C38.5361 48.8375 37.5724 49.8012 36.3933 49.8012C35.2029 49.8012 34.2506 48.826 34.2506 47.6329V30.2983C34.2506 29.0937 35.2142 28.13 36.3933 28.13C37.5838 28.13 38.5361 29.1052 38.5361 30.2983V47.6329ZM41.756 13.3308H40.7923C39.3524 13.3308 38.1733 14.5124 38.1733 15.9809V21.0516C38.1733 22.4054 37.0849 23.5067 35.7471 23.5067C34.4093 23.5067 33.3209 22.4054 33.3209 21.0516V5.91971C33.3209 4.21034 31.9944 2.76483 30.3051 2.71894C28.5591 2.67306 27.1306 4.09562 27.1306 5.85088V72.7687C27.1306 74.478 28.4571 75.9235 30.1464 75.9694C31.8924 76.0153 33.3209 74.5928 33.3209 72.8375V57.6367C33.3209 56.283 34.4093 55.1817 35.7471 55.1817C37.0849 55.1817 38.1733 56.283 38.1733 57.6367V62.7075C38.1733 64.1645 39.3411 65.3576 40.7923 65.3576H41.756C43.1958 65.3576 44.3749 64.1759 44.3749 62.7075V15.9809C44.3636 14.5124 43.1958 13.3308 41.756 13.3308Z" fill="#868686"/>
</g>
<path opacity="0.15" d="M67.6793 40.0254C68.0476 38.4469 67.0816 36.8651 65.5216 36.4923C63.9616 36.1196 62.3984 37.0971 62.03 38.6756C61.6617 40.2541 62.6277 41.836 64.1877 42.2087C65.7477 42.5814 67.3109 41.6039 67.6793 40.0254Z" fill="#868686"/>
</g>
<g opacity="0.15">
<path opacity="0.15" d="M54.0118 48.8261C52.2999 48.8261 50.9167 47.4264 50.9167 45.6941V32.5928C50.9167 30.8605 52.2999 29.4608 54.0118 29.4608C55.7238 29.4608 57.107 30.8605 57.107 32.5928V45.6827C57.107 47.415 55.7238 48.8261 54.0118 48.8261Z" fill="#797979"/>
<path opacity="0.15" d="M17.7886 54.4474C19.5005 54.4474 20.8837 53.0478 20.8837 51.3155V26.9713C20.8837 25.239 19.5005 23.8394 17.7886 23.8394C16.0766 23.8394 14.6934 25.239 14.6934 26.9713V51.304C14.6934 53.0478 16.0766 54.4474 17.7886 54.4474Z" fill="#797979"/>
<path opacity="0.15" d="M4.79576 45.6597C6.50772 45.6597 7.8909 44.2601 7.8909 42.5278V35.7706C7.8909 34.0383 6.50772 32.6386 4.79576 32.6386C3.0838 32.6386 1.70062 34.0383 1.70062 35.7706V42.5278C1.70062 44.2486 3.0838 45.6597 4.79576 45.6597Z" fill="#797979"/>
<g opacity="0.15">
<path opacity="0.15" d="M38.4114 47.4264C38.4114 48.631 37.4478 49.5947 36.2687 49.5947C35.0782 49.5947 34.1259 48.6195 34.1259 47.4264V30.0918C34.1259 28.8872 35.0896 27.9236 36.2687 27.9236C37.4591 27.9236 38.4114 28.8987 38.4114 30.0918V47.4264ZM41.6313 13.1243H40.6676C39.2277 13.1243 38.0486 14.306 38.0486 15.7744V20.8452C38.0486 22.1989 36.9602 23.3002 35.6224 23.3002C34.2846 23.3002 33.1962 22.1989 33.1962 20.8452V5.71323C33.1962 4.00386 31.8697 2.55835 30.1804 2.51246C28.4344 2.46657 27.0059 3.88914 27.0059 5.64439V72.5622C27.0059 74.2716 28.3324 75.7171 30.0217 75.763C31.7677 75.8088 33.1962 74.3863 33.1962 72.631V57.4417C33.1962 56.088 34.2846 54.9867 35.6224 54.9867C36.9602 54.9867 38.0486 56.088 38.0486 57.4417V62.5125C38.0486 63.9695 39.2164 65.1626 40.6676 65.1626H41.6313C43.0712 65.1626 44.2503 63.9809 44.2503 62.5125V15.7744C44.2389 14.3174 43.0712 13.1243 41.6313 13.1243Z" fill="#797979"/>
</g>
<path opacity="0.15" d="M64.7258 42.0803C66.3287 42.0803 67.6282 40.7655 67.6282 39.1434C67.6282 37.5214 66.3287 36.2065 64.7258 36.2065C63.1228 36.2065 61.8234 37.5214 61.8234 39.1434C61.8234 40.7655 63.1228 42.0803 64.7258 42.0803Z" fill="#797979"/>
</g>
<g opacity="0.15">
<path opacity="0.15" d="M53.8871 48.6195C52.1752 48.6195 50.792 47.2199 50.792 45.4876V32.3977C50.792 30.6654 52.1752 29.2658 53.8871 29.2658C55.5991 29.2658 56.9823 30.6654 56.9823 32.3977V45.4876C56.9823 47.2199 55.5991 48.6195 53.8871 48.6195Z" fill="#6D6D6D"/>
<path opacity="0.15" d="M17.6639 54.2409C19.3758 54.2409 20.759 52.8413 20.759 51.109V26.7763C20.759 25.044 19.3758 23.6444 17.6639 23.6444C15.9519 23.6444 14.5687 25.044 14.5687 26.7763V51.109C14.5687 52.8413 15.9519 54.2409 17.6639 54.2409Z" fill="#6D6D6D"/>
<path opacity="0.15" d="M4.67106 45.4532C6.38303 45.4532 7.7662 44.0536 7.7662 42.3213V35.5641C7.7662 33.8318 6.38303 32.4322 4.67106 32.4322C2.9591 32.4322 1.57593 33.8318 1.57593 35.5641V42.3213C1.57593 44.0536 2.9591 45.4532 4.67106 45.4532Z" fill="#6D6D6D"/>
<g opacity="0.15">
<path opacity="0.15" d="M38.2868 47.2314C38.2868 48.436 37.3231 49.3997 36.144 49.3997C34.9535 49.3997 34.0012 48.4245 34.0012 47.2314V29.8853C34.0012 28.6807 34.9649 27.717 36.144 27.717C37.3344 27.717 38.2868 28.6922 38.2868 29.8853V47.2314ZM41.5066 12.9293H40.5429C39.1031 12.9293 37.924 14.1109 37.924 15.5794V20.6501C37.924 22.0039 36.8356 23.1052 35.4977 23.1052C34.1599 23.1052 33.0715 22.0039 33.0715 20.6501V5.51819C33.0715 3.80882 31.745 2.36331 30.0557 2.31743C28.3098 2.27154 26.8812 3.6941 26.8812 5.44936V72.3671C26.8812 74.0765 28.2077 75.522 29.897 75.5679C31.643 75.6138 33.0715 74.1912 33.0715 72.436V57.2352C33.0715 55.8815 34.1599 54.7801 35.4977 54.7801C36.8356 54.7801 37.924 55.8815 37.924 57.2352V62.306C37.924 63.7629 39.0917 64.9561 40.5429 64.9561H41.5066C42.9465 64.9561 44.1256 63.7744 44.1256 62.306V15.5679C44.1142 14.1109 42.9465 12.9293 41.5066 12.9293Z" fill="#6D6D6D"/>
</g>
<path opacity="0.15" d="M64.601 41.8738C66.204 41.8738 67.5034 40.5589 67.5034 38.9369C67.5034 37.3149 66.204 36 64.601 36C62.9981 36 61.6986 37.3149 61.6986 38.9369C61.6986 40.5589 62.9981 41.8738 64.601 41.8738Z" fill="#6D6D6D"/>
</g>
<g opacity="0.15">
<path opacity="0.15" d="M53.7624 48.4245C52.0504 48.4245 50.6672 47.0249 50.6672 45.2925V32.1912C50.6672 30.4589 52.0504 29.0593 53.7624 29.0593C55.4743 29.0593 56.8575 30.4589 56.8575 32.1912V45.2811C56.8575 47.0134 55.4743 48.4245 53.7624 48.4245Z" fill="#616161"/>
<path opacity="0.15" d="M17.5391 54.0459C19.2511 54.0459 20.6342 52.6463 20.6342 50.914V26.5698C20.6342 24.8375 19.2511 23.4379 17.5391 23.4379C15.8271 23.4379 14.444 24.8375 14.444 26.5698V50.9025C14.444 52.6348 15.8271 54.0459 17.5391 54.0459Z" fill="#616161"/>
<path opacity="0.15" d="M4.54631 45.2466C6.25827 45.2466 7.64145 43.847 7.64145 42.1147V35.3575C7.64145 33.6252 6.25827 32.2256 4.54631 32.2256C2.83435 32.2256 1.45117 33.6252 1.45117 35.3575V42.1147C1.45117 43.847 2.83435 45.2466 4.54631 45.2466Z" fill="#616161"/>
<g opacity="0.15">
<path opacity="0.15" d="M38.162 47.0249C38.162 48.2295 37.1983 49.1931 36.0192 49.1931C34.8288 49.1931 33.8764 48.218 33.8764 47.0249V29.6903C33.8764 28.4857 34.8401 27.522 36.0192 27.522C37.2096 27.522 38.162 28.4971 38.162 29.6903V47.0249ZM41.3818 12.7228H40.4182C38.9783 12.7228 37.7992 13.9044 37.7992 15.3729V20.4436C37.7992 21.7973 36.7108 22.8987 35.373 22.8987C34.0351 22.8987 32.9467 21.7973 32.9467 20.4436V5.31168C32.9467 3.60231 31.6203 2.1568 29.931 2.11091C28.185 2.06502 26.7565 3.48759 26.7565 5.24284V72.1606C26.7565 73.87 28.083 75.3155 29.7722 75.3614C31.5182 75.4073 32.9467 73.9847 32.9467 72.2295V57.0287C32.9467 55.675 34.0351 54.5736 35.373 54.5736C36.7108 54.5736 37.7992 55.675 37.7992 57.0287V62.0994C37.7992 63.5564 38.967 64.7495 40.4182 64.7495H41.3818C42.8217 64.7495 44.0008 63.5679 44.0008 62.0994V15.3729C43.9895 13.9044 42.8217 12.7228 41.3818 12.7228Z" fill="#616161"/>
</g>
<path opacity="0.15" d="M67.3031 39.4184C67.6715 37.8399 66.7055 36.258 65.1455 35.8853C63.5855 35.5126 62.0223 36.4901 61.6539 38.0686C61.2856 39.6471 62.2516 41.229 63.8116 41.6017C65.3716 41.9744 66.9348 40.9969 67.3031 39.4184Z" fill="#616161"/>
</g>
<g opacity="0.15">
<path opacity="0.15" d="M53.6377 48.218C51.9257 48.218 50.5425 46.8184 50.5425 45.0861V31.9962C50.5425 30.2639 51.9257 28.8643 53.6377 28.8643C55.3496 28.8643 56.7328 30.2639 56.7328 31.9962V45.0861C56.7328 46.8184 55.3496 48.218 53.6377 48.218Z" fill="#555555"/>
<path opacity="0.15" d="M17.4144 53.8394C19.1264 53.8394 20.5096 52.4398 20.5096 50.7075V26.3748C20.5096 24.6425 19.1264 23.2429 17.4144 23.2429C15.7025 23.2429 14.3193 24.6425 14.3193 26.3748V50.7075C14.3193 52.4398 15.7025 53.8394 17.4144 53.8394Z" fill="#555555"/>
<path opacity="0.15" d="M4.42161 45.0517C6.13358 45.0517 7.51675 43.652 7.51675 41.9197V35.1626C7.51675 33.4303 6.13358 32.0306 4.42161 32.0306C2.70965 32.0306 1.32648 33.4303 1.32648 35.1626V41.9197C1.32648 43.6406 2.70965 45.0517 4.42161 45.0517Z" fill="#555555"/>
<g opacity="0.15">
<path opacity="0.15" d="M38.0373 46.8299C38.0373 48.0345 37.0736 48.9981 35.8945 48.9981C34.7041 48.9981 33.7517 48.023 33.7517 46.8299V29.4838C33.7517 28.2792 34.7154 27.3155 35.8945 27.3155C37.0849 27.3155 38.0373 28.2907 38.0373 29.4838V46.8299ZM41.2571 12.5163H40.2935C38.8536 12.5163 37.6745 13.6979 37.6745 15.1664V20.2371C37.6745 21.5909 36.5861 22.6922 35.2483 22.6922C33.9104 22.6922 32.822 21.5909 32.822 20.2371V5.11667C32.822 3.4073 31.4956 1.96179 29.8063 1.91591C28.0603 1.87002 26.6318 3.29258 26.6318 5.04784V71.9656C26.6318 73.675 27.9583 75.1205 29.6475 75.1664C31.3935 75.2123 32.822 73.7897 32.822 72.0345V56.8337C32.822 55.48 33.9104 54.3786 35.2483 54.3786C36.5861 54.3786 37.6745 55.48 37.6745 56.8337V61.9044C37.6745 63.3614 38.8423 64.5545 40.2935 64.5545H41.2571C42.697 64.5545 43.8761 63.3729 43.8761 61.9044V15.1664C43.8648 13.7094 42.697 12.5163 41.2571 12.5163Z" fill="#555555"/>
</g>
<path opacity="0.15" d="M64.3516 41.4723C65.9546 41.4723 67.254 40.1574 67.254 38.5354C67.254 36.9134 65.9546 35.5985 64.3516 35.5985C62.7487 35.5985 61.4492 36.9134 61.4492 38.5354C61.4492 40.1574 62.7487 41.4723 64.3516 41.4723Z" fill="#555555"/>
</g>
<g opacity="0.15">
<path opacity="0.15" d="M53.513 48.0115C51.801 48.0115 50.4178 46.6119 50.4178 44.8796V31.7897C50.4178 30.0574 51.801 28.6578 53.513 28.6578C55.2249 28.6578 56.6081 30.0574 56.6081 31.7897V44.8796C56.6081 46.6119 55.2249 48.0115 53.513 48.0115Z" fill="#494949"/>
<path opacity="0.15" d="M17.2897 53.6329C19.0017 53.6329 20.3849 52.2333 20.3849 50.501V26.1683C20.3849 24.436 19.0017 23.0363 17.2897 23.0363C15.5778 23.0363 14.1946 24.436 14.1946 26.1683V50.501C14.1946 52.2333 15.5778 53.6329 17.2897 53.6329Z" fill="#494949"/>
<path opacity="0.15" d="M4.29692 44.8451C6.00888 44.8451 7.39206 43.4455 7.39206 41.7132V34.956C7.39206 33.2237 6.00888 31.8241 4.29692 31.8241C2.58496 31.8241 1.20178 33.2237 1.20178 34.956V41.7132C1.20178 43.4455 2.58496 44.8451 4.29692 44.8451Z" fill="#494949"/>
<g opacity="0.15">
<path opacity="0.15" d="M37.9126 46.6234C37.9126 47.828 36.9489 48.7916 35.7698 48.7916C34.5794 48.7916 33.627 47.8165 33.627 46.6234V29.2773C33.627 28.0727 34.5907 27.109 35.7698 27.109C36.9602 27.109 37.9126 28.0842 37.9126 29.2773V46.6234ZM41.1324 12.3213H40.1688C38.7289 12.3213 37.5498 13.5029 37.5498 14.9713V20.0421C37.5498 21.3958 36.4614 22.4972 35.1236 22.4972C33.7857 22.4972 32.6974 21.3958 32.6974 20.0421V4.91016C32.6974 3.20079 31.3709 1.75528 29.6816 1.70939C27.9356 1.6635 26.5071 3.08607 26.5071 4.84133V71.7591C26.5071 73.4685 27.8336 74.914 29.5229 74.9599C31.2688 75.0058 32.6974 73.5832 32.6974 71.828V56.6272C32.6974 55.2735 33.7857 54.1721 35.1236 54.1721C36.4614 54.1721 37.5498 55.2735 37.5498 56.6272V61.6979C37.5498 63.1549 38.7176 64.348 40.1688 64.348H41.1324C42.5723 64.348 43.7514 63.1664 43.7514 61.6979V14.9713C43.7401 13.5029 42.5723 12.3213 41.1324 12.3213Z" fill="#494949"/>
</g>
<path opacity="0.15" d="M67.0561 39.0146C67.4245 37.4361 66.4585 35.8543 64.8985 35.4815C63.3385 35.1088 61.7753 36.0863 61.4069 37.6648C61.0385 39.2433 62.0046 40.8252 63.5645 41.1979C65.1245 41.5706 66.6878 40.5931 67.0561 39.0146Z" fill="#494949"/>
</g>
<g opacity="0.15">
<path opacity="0.15" d="M53.3882 47.8165C51.6763 47.8165 50.2931 46.4168 50.2931 44.6845V31.5832C50.2931 29.8509 51.6763 28.4513 53.3882 28.4513C55.1002 28.4513 56.4834 29.8509 56.4834 31.5832V44.6731C56.4834 46.4054 55.1002 47.8165 53.3882 47.8165Z" fill="#3D3D3D"/>
<path opacity="0.15" d="M17.165 53.4379C18.8769 53.4379 20.2601 52.0383 20.2601 50.3059V25.9618C20.2601 24.2295 18.8769 22.8298 17.165 22.8298C15.453 22.8298 14.0698 24.2295 14.0698 25.9618V50.2945C14.0698 52.0268 15.453 53.4379 17.165 53.4379Z" fill="#3D3D3D"/>
<path opacity="0.15" d="M4.17216 44.6386C5.88413 44.6386 7.2673 43.239 7.2673 41.5067V34.761C7.2673 33.0287 5.88413 31.6291 4.17216 31.6291C2.4602 31.6291 1.07703 33.0287 1.07703 34.761V41.5182C1.07703 43.239 2.4602 44.6386 4.17216 44.6386Z" fill="#3D3D3D"/>
<g opacity="0.15">
<path opacity="0.15" d="M37.7878 46.4168C37.7878 47.6214 36.8242 48.5851 35.6451 48.5851C34.4546 48.5851 33.5023 47.61 33.5023 46.4168V29.0822C33.5023 27.8776 34.466 26.914 35.6451 26.914C36.8355 26.914 37.7878 27.8891 37.7878 29.0822V46.4168ZM41.0077 12.1147H40.044C38.6041 12.1147 37.425 13.2964 37.425 14.7648V19.8356C37.425 21.1893 36.3367 22.2906 34.9988 22.2906C33.661 22.2906 32.5726 21.1893 32.5726 19.8356V4.70365C32.5726 2.99428 31.2461 1.54877 29.5568 1.50288C27.8109 1.45699 26.3823 2.87955 26.3823 4.63481V71.5526C26.3823 73.262 27.7088 74.7075 29.3981 74.7534C31.1441 74.7993 32.5726 73.3767 32.5726 71.6214V56.4321C32.5726 55.0784 33.661 53.9771 34.9988 53.9771C36.3367 53.9771 37.425 55.0784 37.425 56.4321V61.5029C37.425 62.9599 38.5928 64.153 40.044 64.153H41.0077C42.4476 64.153 43.6267 62.9713 43.6267 61.5029V14.7648C43.6153 13.2964 42.4476 12.1147 41.0077 12.1147Z" fill="#3D3D3D"/>
</g>
<path opacity="0.15" d="M66.9271 38.8114C67.2954 37.2329 66.3294 35.651 64.7694 35.2783C63.2094 34.9056 61.6462 35.8831 61.2778 37.4616C60.9095 39.0401 61.8755 40.622 63.4355 40.9947C64.9955 41.3674 66.5587 40.3899 66.9271 38.8114Z" fill="#3D3D3D"/>
</g>
<g opacity="0.15">
<path opacity="0.15" d="M53.2635 47.61C51.5516 47.61 50.1684 46.2104 50.1684 44.4781V31.3882C50.1684 29.6559 51.5516 28.2563 53.2635 28.2563C54.9755 28.2563 56.3587 29.6559 56.3587 31.3882V44.4781C56.3587 46.2104 54.9755 47.61 53.2635 47.61Z" fill="#313131"/>
<path opacity="0.15" d="M17.0403 53.2314C18.7522 53.2314 20.1354 51.8318 20.1354 50.0995V25.7668C20.1354 24.0344 18.7522 22.6348 17.0403 22.6348C15.3283 22.6348 13.9451 24.0344 13.9451 25.7668V50.0995C13.9451 51.8318 15.3283 53.2314 17.0403 53.2314Z" fill="#313131"/>
<path opacity="0.15" d="M4.04747 44.4436C5.75943 44.4436 7.14261 43.044 7.14261 41.3117V34.5545C7.14261 32.8222 5.75943 31.4226 4.04747 31.4226C2.33551 31.4226 0.952332 32.8222 0.952332 34.5545V41.3117C0.952332 43.044 2.33551 44.4436 4.04747 44.4436Z" fill="#313131"/>
<g opacity="0.15">
<path opacity="0.15" d="M37.6632 46.2218C37.6632 47.4264 36.6995 48.3901 35.5204 48.3901C34.3299 48.3901 33.3776 47.415 33.3776 46.2218V28.8758C33.3776 27.6712 34.3413 26.7075 35.5204 26.7075C36.7108 26.7075 37.6632 27.6826 37.6632 28.8758V46.2218ZM40.883 11.9197H39.9193C38.4795 11.9197 37.3004 13.1014 37.3004 14.5698V19.6406C37.3004 20.9943 36.212 22.0956 34.8741 22.0956C33.5363 22.0956 32.4479 20.9943 32.4479 19.6406V4.50864C32.4479 2.79927 31.1214 1.35376 29.4321 1.30787C27.6862 1.26198 26.2576 2.68455 26.2576 4.4398V71.3576C26.2576 73.067 27.5841 74.5125 29.2734 74.5584C31.0194 74.6043 32.4479 73.1817 32.4479 71.4264V56.2257C32.4479 54.8719 33.5363 53.7706 34.8741 53.7706C36.212 53.7706 37.3004 54.8719 37.3004 56.2257V61.2964C37.3004 62.7534 38.4681 63.9465 39.9193 63.9465H40.883C42.3229 63.9465 43.502 62.7649 43.502 61.2964V14.5584C43.4906 13.1014 42.3229 11.9197 40.883 11.9197Z" fill="#313131"/>
</g>
<path opacity="0.15" d="M63.9775 40.8643C65.5804 40.8643 66.8799 39.5494 66.8799 37.9274C66.8799 36.3054 65.5804 34.9905 63.9775 34.9905C62.3745 34.9905 61.0751 36.3054 61.0751 37.9274C61.0751 39.5494 62.3745 40.8643 63.9775 40.8643Z" fill="#313131"/>
</g>
<g opacity="0.15">
<path opacity="0.15" d="M53.1388 47.4035C51.4269 47.4035 50.0437 46.0039 50.0437 44.2715V31.1817C50.0437 29.4494 51.4269 28.0497 53.1388 28.0497C54.8508 28.0497 56.234 29.4494 56.234 31.1817V44.2715C56.234 46.0039 54.8508 47.4035 53.1388 47.4035Z" fill="#242424"/>
<path opacity="0.15" d="M16.9156 53.0364C18.6275 53.0364 20.0107 51.6367 20.0107 49.9044V25.5602C20.0107 23.8279 18.6275 22.4283 16.9156 22.4283C15.2036 22.4283 13.8204 23.8279 13.8204 25.5602V49.893C13.8204 51.6253 15.2036 53.0364 16.9156 53.0364Z" fill="#242424"/>
<path opacity="0.15" d="M3.92277 44.2371C5.63473 44.2371 7.01791 42.8375 7.01791 41.1052V34.348C7.01791 32.6157 5.63473 31.2161 3.92277 31.2161C2.21081 31.2161 0.827637 32.6157 0.827637 34.348V41.1052C0.827637 42.8375 2.21081 44.2371 3.92277 44.2371Z" fill="#242424"/>
<g opacity="0.15">
<path opacity="0.15" d="M37.5385 46.0153C37.5385 47.2199 36.5748 48.1836 35.3957 48.1836C34.2052 48.1836 33.2529 47.2084 33.2529 46.0153V28.6807C33.2529 27.4761 34.2166 26.5125 35.3957 26.5125C36.5861 26.5125 37.5385 27.4876 37.5385 28.6807V46.0153ZM40.7583 11.7132H39.7946C38.3548 11.7132 37.1757 12.8949 37.1757 14.3633V19.4341C37.1757 20.7878 36.0873 21.8891 34.7494 21.8891C33.4116 21.8891 32.3232 20.7878 32.3232 19.4341V4.30213C32.3232 2.59276 30.9967 1.14725 29.3074 1.10136C27.5615 1.05547 26.1329 2.47803 26.1329 4.23329V71.1511C26.1329 72.8605 27.4594 74.306 29.1487 74.3518C30.8947 74.3977 32.3232 72.9752 32.3232 71.2199V56.0191C32.3232 54.6654 33.4116 53.5641 34.7494 53.5641C36.0873 53.5641 37.1757 54.6654 37.1757 56.0191V61.0899C37.1757 62.5469 38.3434 63.74 39.7946 63.74H40.7583C42.1982 63.74 43.3773 62.5583 43.3773 61.0899V14.3633C43.3659 12.8949 42.1982 11.7132 40.7583 11.7132Z" fill="#242424"/>
</g>
<path opacity="0.15" d="M66.6801 38.4076C67.0484 36.8291 66.0824 35.2473 64.5224 34.8745C62.9624 34.5018 61.3992 35.4793 61.0308 37.0578C60.6625 38.6363 61.6285 40.2182 63.1885 40.5909C64.7485 40.9636 66.3117 39.9861 66.6801 38.4076Z" fill="#242424"/>
</g>
<g opacity="0.15">
<path opacity="0.15" d="M53.0141 47.2084C51.3022 47.2084 49.919 45.8088 49.919 44.0765V30.9866C49.919 29.2543 51.3022 27.8547 53.0141 27.8547C54.7261 27.8547 56.1093 29.2543 56.1093 30.9866V44.0765C56.1093 45.8088 54.7261 47.2084 53.0141 47.2084Z" fill="#181818"/>
<path opacity="0.15" d="M16.7908 52.8298C18.5028 52.8298 19.886 51.4302 19.886 49.6979V25.3537C19.886 23.6214 18.5028 22.2218 16.7908 22.2218C15.0789 22.2218 13.6957 23.6214 13.6957 25.3537V49.6864C13.6957 51.4302 15.0789 52.8298 16.7908 52.8298Z" fill="#181818"/>
<path opacity="0.15" d="M3.79808 44.0421C5.51004 44.0421 6.89321 42.6425 6.89321 40.9102V34.153C6.89321 32.4207 5.51004 31.0211 3.79808 31.0211C2.08612 31.0211 0.702942 32.4207 0.702942 34.153V40.9102C0.702942 42.631 2.08612 44.0421 3.79808 44.0421Z" fill="#181818"/>
<g opacity="0.15">
<path opacity="0.15" d="M37.4138 45.8088C37.4138 47.0134 36.4501 47.9771 35.271 47.9771C34.0805 47.9771 33.1282 47.0019 33.1282 45.8088V28.4742C33.1282 27.2696 34.0919 26.3059 35.271 26.3059C36.4614 26.3059 37.4138 27.2811 37.4138 28.4742V45.8088ZM40.6336 11.5067H39.6699C38.2301 11.5067 37.051 12.6884 37.051 14.1568V19.2276C37.051 20.5813 35.9626 21.6826 34.6247 21.6826C33.2869 21.6826 32.1985 20.5813 32.1985 19.2276V4.10709C32.1985 2.39772 30.872 0.952212 29.1827 0.906323C27.4368 0.860434 26.0082 2.283 26.0082 4.03825V70.9561C26.0082 72.6654 27.3347 74.1109 29.024 74.1568C30.77 74.2027 32.1985 72.7801 32.1985 71.0249V55.8241C32.1985 54.4704 33.2869 53.369 34.6247 53.369C35.9626 53.369 37.051 54.4704 37.051 55.8241V60.8949C37.051 62.3518 38.2187 63.545 39.6699 63.545H40.6336C42.0735 63.545 43.2526 62.3633 43.2526 60.8949V14.1568C43.2412 12.6998 42.0735 11.5067 40.6336 11.5067Z" fill="#181818"/>
</g>
<path opacity="0.15" d="M66.5511 38.2044C66.9194 36.6259 65.9534 35.044 64.3934 34.6713C62.8334 34.2986 61.2702 35.276 60.9018 36.8546C60.5334 38.4331 61.4995 40.0149 63.0595 40.3877C64.6195 40.7604 66.1827 39.7829 66.5511 38.2044Z" fill="#181818"/>
</g>
<g opacity="0.15">
<path opacity="0.15" d="M52.8894 47.002C51.1774 47.002 49.7943 45.6023 49.7943 43.87V30.7802C49.7943 29.0478 51.1774 27.6482 52.8894 27.6482C54.6013 27.6482 55.9845 29.0478 55.9845 30.7802V43.87C55.9845 45.6023 54.6013 47.002 52.8894 47.002Z" fill="#0C0C0C"/>
<path opacity="0.15" d="M16.6661 52.6234C18.3781 52.6234 19.7613 51.2237 19.7613 49.4914V25.1587C19.7613 23.4264 18.3781 22.0268 16.6661 22.0268C14.9542 22.0268 13.571 23.4264 13.571 25.1587V49.4914C13.571 51.2237 14.9542 52.6234 16.6661 52.6234Z" fill="#0C0C0C"/>
<path opacity="0.15" d="M3.67332 43.8356C5.38529 43.8356 6.76846 42.436 6.76846 40.7037V33.9465C6.76846 32.2142 5.38529 30.8146 3.67332 30.8146C1.96136 30.8146 0.578186 32.2142 0.578186 33.9465V40.7037C0.578186 42.436 1.96136 43.8356 3.67332 43.8356Z" fill="#0C0C0C"/>
<g opacity="0.15">
<path opacity="0.15" d="M37.289 45.6138C37.289 46.8184 36.3253 47.7821 35.1462 47.7821C33.9558 47.7821 33.0034 46.8069 33.0034 45.6138V28.2677C33.0034 27.0631 33.9671 26.0995 35.1462 26.0995C36.3367 26.0995 37.289 27.0746 37.289 28.2677V45.6138ZM40.5089 11.3117H39.5452C38.1053 11.3117 36.9262 12.4933 36.9262 13.9618V19.0325C36.9262 20.3863 35.8378 21.4876 34.5 21.4876C33.1622 21.4876 32.0738 20.3863 32.0738 19.0325V3.90061C32.0738 2.19124 30.7473 0.74573 29.058 0.699841C27.312 0.653952 25.8835 2.07651 25.8835 3.83177V70.7496C25.8835 72.4589 27.21 73.9044 28.8993 73.9503C30.6452 73.9962 32.0738 72.5736 32.0738 70.8184V55.6176C32.0738 54.2639 33.1622 53.1626 34.5 53.1626C35.8378 53.1626 36.9262 54.2639 36.9262 55.6176V60.6884C36.9262 62.1453 38.094 63.3385 39.5452 63.3385H40.5089C41.9487 63.3385 43.1278 62.1568 43.1278 60.6884V13.9503C43.1165 12.4933 41.9487 11.3117 40.5089 11.3117Z" fill="#0C0C0C"/>
</g>
<path opacity="0.15" d="M63.6033 40.2562C65.2063 40.2562 66.5057 38.9414 66.5057 37.3193C66.5057 35.6973 65.2063 34.3824 63.6033 34.3824C62.0004 34.3824 60.7009 35.6973 60.7009 37.3193C60.7009 38.9414 62.0004 40.2562 63.6033 40.2562Z" fill="#0C0C0C"/>
</g>
<g opacity="0.15">
<path opacity="0.15" d="M52.7647 46.8069C51.0527 46.8069 49.6696 45.4073 49.6696 43.675V30.5736C49.6696 28.8413 51.0527 27.4417 52.7647 27.4417C54.4767 27.4417 55.8598 28.8413 55.8598 30.5736V43.6635C55.8598 45.3958 54.4767 46.8069 52.7647 46.8069Z" fill="black"/>
<path opacity="0.15" d="M16.5414 52.4283C18.2534 52.4283 19.6366 51.0287 19.6366 49.2964V24.9522C19.6366 23.2199 18.2534 21.8203 16.5414 21.8203C14.8295 21.8203 13.4463 23.2199 13.4463 24.9522V49.2849C13.4463 51.0172 14.8295 52.4283 16.5414 52.4283Z" fill="black"/>
<path opacity="0.15" d="M3.54863 43.6291C5.26059 43.6291 6.64376 42.2294 6.64376 40.4971V33.74C6.64376 32.0077 5.26059 30.608 3.54863 30.608C1.83667 30.608 0.453491 32.0191 0.453491 33.7514V40.4971C0.453491 42.2294 1.83667 43.6291 3.54863 43.6291Z" fill="black"/>
<g opacity="0.15">
<path opacity="0.15" d="M37.1643 45.4073C37.1643 46.6119 36.2006 47.5756 35.0215 47.5756C33.8311 47.5756 32.8787 46.6004 32.8787 45.4073V28.0727C32.8787 26.8681 33.8424 25.9044 35.0215 25.9044C36.212 25.9044 37.1643 26.8796 37.1643 28.0727V45.4073ZM40.3842 11.1052H39.4205C37.9806 11.1052 36.8015 12.2868 36.8015 13.7553V18.826C36.8015 20.1798 35.7131 21.2811 34.3753 21.2811C33.0375 21.2811 31.9491 20.1798 31.9491 18.826V3.69409C31.9491 1.98472 30.6226 0.539218 28.9333 0.493328C27.1873 0.447439 25.7588 1.87 25.7588 3.62526V70.543C25.7588 72.2524 27.0853 73.6979 28.7746 73.7438C30.5205 73.7897 31.9491 72.3671 31.9491 70.6119V55.4111C31.9491 54.0574 33.0375 52.956 34.3753 52.956C35.7131 52.956 36.8015 54.0574 36.8015 55.4111V60.4819C36.8015 61.9388 37.9693 63.132 39.4205 63.132H40.3842C41.824 63.132 43.0031 61.9503 43.0031 60.4819V13.7553C42.9918 12.2868 41.824 11.1052 40.3842 11.1052Z" fill="black"/>
</g>
<path opacity="0.15" d="M66.304 37.8006C66.6723 36.2221 65.7063 34.6402 64.1463 34.2675C62.5863 33.8948 61.0231 34.8723 60.6547 36.4508C60.2864 38.0293 61.2524 39.6112 62.8124 39.9839C64.3724 40.3566 65.9356 39.3791 66.304 37.8006Z" fill="black"/>
</g>
</g>
<path d="M52.3112 46.3136C50.5992 46.3136 49.2161 44.914 49.2161 43.1816V30.0803C49.2161 28.348 50.5992 26.9484 52.3112 26.9484C54.0232 26.9484 55.4063 28.348 55.4063 30.0803V43.1702C55.4063 44.9025 54.0232 46.3136 52.3112 46.3136Z" fill="url(#paint0_linear_9_58)"/>
<path d="M16.0992 51.935C17.8112 51.935 19.1944 50.5354 19.1944 48.8031V24.4589C19.1944 22.7266 17.8112 21.327 16.0992 21.327C14.3873 21.327 13.0041 22.7266 13.0041 24.4589V48.7916C12.9928 50.5239 14.3873 51.935 16.0992 51.935Z" fill="url(#paint1_linear_9_58)"/>
<path d="M3.09514 43.1358C4.8071 43.1358 6.19027 41.7361 6.19027 40.0038V33.2466C6.19027 31.5143 4.8071 30.1147 3.09514 30.1147C1.38317 30.1147 0 31.5258 0 33.2581V40.0153C0 41.7361 1.38317 43.1358 3.09514 43.1358Z" fill="url(#paint2_linear_9_58)"/>
<path d="M39.9307 10.6119H38.967C37.5271 10.6119 36.348 11.7935 36.348 13.262V18.3327C36.348 19.6864 35.2596 20.7878 33.9218 20.7878C32.584 20.7878 31.4956 19.6864 31.4956 18.3327V3.20078C31.4956 1.49141 30.1691 0.0459009 28.4798 1.17833e-05C26.7338 -0.0458773 25.3053 1.37669 25.3053 3.13194V70.0497C25.3053 71.7591 26.6318 73.2046 28.3211 73.2505C30.067 73.2964 31.4956 71.8738 31.4956 70.1186V54.9178C31.4956 53.5641 32.584 52.4627 33.9218 52.4627C35.2596 52.4627 36.348 53.5641 36.348 54.9178V60C36.348 61.457 37.5158 62.6501 38.967 62.6501H39.9307C41.3705 62.6501 42.5496 61.4685 42.5496 60V13.262C42.5496 11.7935 41.3705 10.6119 39.9307 10.6119ZM36.7222 44.914C36.7222 46.1186 35.7585 47.0822 34.5794 47.0822C33.3889 47.0822 32.4366 46.1071 32.4366 44.914V27.5794C32.4366 26.3748 33.4003 25.4111 34.5794 25.4111C35.7698 25.4111 36.7222 26.3863 36.7222 27.5794V44.914Z" fill="url(#paint3_linear_9_58)"/>
<path d="M63.0251 39.5679C64.6281 39.5679 65.9275 38.253 65.9275 36.631C65.9275 35.009 64.6281 33.6941 63.0251 33.6941C61.4222 33.6941 60.1227 35.009 60.1227 36.631C60.1227 38.253 61.4222 39.5679 63.0251 39.5679Z" fill="url(#paint4_linear_9_58)"/>
</g>
<defs>
<linearGradient id="paint0_linear_9_58" x1="58.1497" y1="5.5" x2="55.5112" y2="79.4058" gradientUnits="userSpaceOnUse">
<stop stop-color="#FF0080"/>
<stop offset="0.778338" stop-color="#7928CA"/>
</linearGradient>
<linearGradient id="paint1_linear_9_58" x1="21.9377" y1="2" x2="18.0848" y2="70.2826" gradientUnits="userSpaceOnUse">
<stop offset="0.656232" stop-color="#FF0080"/>
<stop offset="0.836706" stop-color="#7928CA"/>
</linearGradient>
<linearGradient id="paint2_linear_9_58" x1="8.93357" y1="-46.7948" x2="4.97149" y2="118.261" gradientUnits="userSpaceOnUse">
<stop offset="0.559407" stop-color="#FF0080"/>
<stop offset="1" stop-color="#7928CA"/>
</linearGradient>
<linearGradient id="paint3_linear_9_58" x1="50.1917" y1="3.09261e-08" x2="46.6612" y2="72.8289" gradientUnits="userSpaceOnUse">
<stop offset="0.241276" stop-color="#FF0080"/>
<stop offset="0.770488" stop-color="#7928CA"/>
</linearGradient>
<linearGradient id="paint4_linear_9_58" x1="68.5" y1="-1" x2="67.6398" y2="73.4901" gradientUnits="userSpaceOnUse">
<stop offset="0.236563" stop-color="#FF0080"/>
<stop offset="0.731992" stop-color="#7928CA"/>
</linearGradient>
<clipPath id="clip0_9_58">
<rect width="69" height="78" fill="white"/>
</clipPath>
</defs>
</svg>
