<svg width="24" height="24" viewBox="0 0 24 24" fill="none" xmlns="http://www.w3.org/2000/svg">
<path d="M22.9858 10.1871L21.4129 10.1773C21.1777 8.96697 20.7122 7.79098 20.0066 6.72278L21.1238 5.61539C21.5256 5.2185 21.5256 4.5766 21.1336 4.17481L19.9282 2.95472C19.5313 2.55292 18.8894 2.55292 18.4876 2.94492L17.3704 4.05231C16.312 3.33691 15.1409 2.85182 13.9306 2.60682L13.9404 1.03393C13.9453 0.470435 13.4896 0.014739 12.9261 0.00983907L11.2111 3.91487e-05C10.6477 -0.00486081 10.192 0.450836 10.1871 1.01433L10.1724 2.58722C8.95717 2.82242 7.78118 3.28791 6.71789 3.99351L5.61049 2.87632C5.2136 2.47452 4.5717 2.47452 4.16991 2.86652L2.95472 4.07191C2.55292 4.4688 2.55292 5.1107 2.94492 5.51249L4.05231 6.62969C3.33691 7.68808 2.85182 8.85917 2.60682 10.0695L1.03393 10.0597C0.470435 10.0548 0.014739 10.5105 0.00983907 11.0739L3.91487e-05 12.7889C-0.00486081 13.3475 0.450836 13.8081 1.01433 13.813L2.58722 13.8228C2.82242 15.0331 3.28791 16.2091 3.99351 17.2773L2.87632 18.3847C2.47452 18.7816 2.47452 19.4235 2.86652 19.8253L4.07191 21.0454C4.4688 21.4472 5.1107 21.4472 5.51249 21.0552L6.62969 19.9478C7.68808 20.6632 8.85917 21.1483 10.0695 21.3933L10.0597 22.9662C10.0548 23.5296 10.5105 23.9853 11.0739 23.9902L12.7889 24C13.3524 24.0049 13.8081 23.5492 13.813 22.9858L13.8228 21.4129C15.0331 21.1777 16.2091 20.7122 17.2773 20.0066L18.3847 21.1238C18.7816 21.5256 19.4235 21.5256 19.8253 21.1336L21.0454 19.9282C21.4472 19.5313 21.4472 18.8894 21.0552 18.4876L19.9478 17.3704C20.6632 16.312 21.1483 15.1409 21.3933 13.9306L22.9662 13.9404C23.5296 13.9453 23.9853 13.4896 23.9902 12.9261L24 11.2111C24.0049 10.6477 23.5492 10.192 22.9858 10.1871ZM15.2046 15.2389C13.4112 17.0127 10.5252 16.998 8.75137 15.2046C6.97758 13.4112 6.99228 10.5252 8.78567 8.75137C10.5791 6.97758 13.4651 6.99228 15.2389 8.78567C17.0127 10.5791 16.998 13.4651 15.2046 15.2389Z" fill="#7928CA"/>
<path d="M15.2046 15.2389C13.4112 17.0127 10.5252 16.998 8.75139 15.2046C6.9776 13.4112 6.9923 10.5252 8.78569 8.75137C10.5791 6.97759 13.4651 6.99229 15.2389 8.78567C17.0127 10.5791 16.998 13.4651 15.2046 15.2389Z" fill="#FF0080"/>
</svg>
