<svg width="24" height="24" viewBox="0 0 24 24" fill="none" xmlns="http://www.w3.org/2000/svg">
<path d="M1.506 7.79931H21.256C22.221 7.79931 23.006 8.59573 23.006 9.57478V13.3763H24V8.81082C24 7.69177 23.103 6.78171 22 6.78171H2C1.26089 6.78156 0.548166 6.50299 0 6V6.91259C0.304 7.44016 0.8615 7.79931 1.506 7.79931ZM22.979 18.9563L22.9745 19.7375C22.9738 20.0735 22.8419 20.3956 22.6076 20.633C22.3732 20.8705 22.0557 21.0039 21.7245 21.0042L1.5 20.9854C0.944669 20.9836 0.40991 20.772 0 20.3919V20.4782C0 21.3172 0.673 22 1.5 22H22.5C23.327 22 24 21.3172 24 20.4782V18.9563H22.979ZM5.482 15.9127H3.482V17.9418H5.482C6.0335 17.9418 6.482 17.4868 6.482 16.9272C6.482 16.3677 6.0335 15.9127 5.482 15.9127ZM5.482 13.8836C5.482 13.3241 5.0335 12.869 4.482 12.869H3.482V14.8981H4.482C5.0335 14.8981 5.482 14.4431 5.482 13.8836Z" fill="#7928CA"/>
<path d="M20.6945 13.9891H23V10.2462C23 9.55745 22.4267 8.99756 21.7226 8.99756H1.53906C0.968725 8.99596 0.419672 8.7857 0 8.4082V20.1195C0.156682 20.3811 0.380509 20.5983 0.649355 20.7494C0.918202 20.9006 1.22276 20.9806 1.53292 20.9815L22.2019 21C22.6244 21 22.9683 20.6639 22.9683 20.2508L22.9724 19.4832H20.6945C19.1447 19.4832 17.8841 18.2505 17.8841 16.7361C17.8841 15.2218 19.1447 13.9891 20.6945 13.9891ZM5.60233 19.4832H4.58038V19.7329C4.58038 19.7991 4.55346 19.8626 4.50555 19.9095C4.45763 19.9563 4.39265 19.9826 4.32489 19.9826C4.25713 19.9826 4.19215 19.9563 4.14423 19.9095C4.09632 19.8626 4.0694 19.7991 4.0694 19.7329V19.4832H3.04745V19.7329C3.04745 19.7991 3.02054 19.8626 2.97262 19.9095C2.92471 19.9563 2.85973 19.9826 2.79197 19.9826C2.72421 19.9826 2.65922 19.9563 2.61131 19.9095C2.5634 19.8626 2.53648 19.7991 2.53648 19.7329V19.4762C2.40823 19.4682 2.28786 19.4129 2.19974 19.3215C2.11161 19.23 2.0623 19.1093 2.06178 18.9837C2.06175 18.8636 2.106 18.7475 2.18643 18.6567C2.26685 18.5659 2.37807 18.5064 2.49969 18.4892V13.4847C2.37532 13.4675 2.26187 13.4059 2.18123 13.3118C2.1006 13.2177 2.0585 13.0977 2.06308 12.975C2.06765 12.8523 2.11857 12.7356 2.206 12.6475C2.29342 12.5594 2.41116 12.506 2.53648 12.4978V12.241C2.53648 12.1748 2.5634 12.1113 2.61131 12.0644C2.65922 12.0176 2.72421 11.9913 2.79197 11.9913C2.85973 11.9913 2.92471 12.0176 2.97262 12.0644C3.02054 12.1113 3.04745 12.1748 3.04745 12.241V12.4908H4.0694V12.241C4.0694 12.1748 4.09632 12.1113 4.14423 12.0644C4.19215 12.0176 4.25713 11.9913 4.32489 11.9913C4.39265 11.9913 4.45763 12.0176 4.50555 12.0644C4.55346 12.1113 4.58038 12.1748 4.58038 12.241V12.4908C5.70759 12.4908 6.62428 13.3868 6.62428 14.4886C6.62428 14.9026 6.49449 15.2877 6.27324 15.6069C7.06985 15.8796 7.64623 16.6143 7.64623 17.4853C7.64623 18.5871 6.72954 19.4832 5.60233 19.4832ZM18.3951 4.74918C18.3951 4.33613 18.0512 4 17.6286 4H2.29939C1.87681 4 1.53292 4.33613 1.53292 4.74918V6.42636C1.69746 6.46831 1.86659 6.49728 2.0439 6.49728H18.3951V4.74918Z" fill="#7928CA"/>
<path d="M18 2H2C0.897 2 0 2.897 0 4C0 4.737 0.405 5.375 1 5.722V4.25C1 3.5605 1.561 3 2.25 3H17.25C17.939 3 18.5 3.5605 18.5 4.25V6H19.5V3.5C19.5 2.673 18.827 2 18 2ZM20.25 14.5C19.285 14.5 18.5 15.285 18.5 16.25C18.5 17.215 19.285 18 20.25 18H24V14.5H20.25ZM20.25 16.75C20.1174 16.75 19.9902 16.6973 19.8964 16.6036C19.8027 16.5098 19.75 16.3826 19.75 16.25C19.75 16.1174 19.8027 15.9902 19.8964 15.8964C19.9902 15.8027 20.1174 15.75 20.25 15.75C20.3826 15.75 20.5098 15.8027 20.6036 15.8964C20.6973 15.9902 20.75 16.1174 20.75 16.25C20.75 16.3826 20.6973 16.5098 20.6036 16.6036C20.5098 16.6973 20.3826 16.75 20.25 16.75Z" fill="#7928CA"/>
</svg>
